:SAMPLES-PER-SECOND 30
:FULLY-SPECIFIED
:DEGREES
473
root  -24.6054 33.733 -23.2444 -170.469 -39.0832 -173.514
RightUpLeg  -30.724 -17.0735 13.5793
RightLeg  20.9091 -13.9439 -4.27015
RightFoot  0.165249 0.000680507 0.0227044
RightToes  -7.61033 -0.0259175 -0.0705414
Spine  -1.07998 -0.702116 4.41679
Spine1  -2.22568 -1.54845 9.33036
HEad  -36.6987 -9.62734 -5.81108
LeftShoulder1  -1.94126e-019 -3.10601e-018 -2.51263e-017
LeftArm  -35.3882 36.069 -87.5058
LeftForeArm  23.4868 -9.16982 -1.61481
LeftHand  -0.286528 2.39804 10.8702
RightShoulder  -4.96962e-017 0 -2.36833e-017
RightArm  -67.0855 -21.2651 69.7346
RightForeArm  48.1751 6.17033 1.09676
RightHand  0.652047 -9.87767 -17.3388
LeftUpLeg  -13.5738 4.50672 3.52067
LeftLeg  35.2 2.79175 1.70529
LeftFoot  -9.62706 -0.0518897 -0.454672
LeftToes  -29.9253 1.46665e-006 1.03344e-007
474
root  -24.9472 33.957 -24.0444 -170.785 -40.2383 -173.681
RightUpLeg  -27.6057 -19.5897 13.6143
RightLeg  17.9748 -12.6706 -3.19515
RightFoot  0.143543 0.000474569 0.049518
RightToes  -8.95149 -0.0284528 -0.0826182
Spine  -0.782266 -0.771852 4.16525
Spine1  -1.64561 -1.66171 8.83152
HEad  -36.643 -9.58949 -4.98656
LeftShoulder1  -1.94126e-019 -3.10601e-018 -2.51263e-017
LeftArm  -31.6655 35.8897 -90.2973
LeftForeArm  23.0911 -11.5934 -2.04991
LeftHand  -0.296048 1.5577 8.85413
RightShoulder  -4.96962e-017 0 -2.36833e-017
RightArm  -66.728 -20.4564 72.0248
RightForeArm  38.8287 7.45907 1.32615
RightHand  0.455789 -9.57414 -13.4046
LeftUpLeg  -17.1657 8.11072 3.49611
LeftLeg  43.0137 4.52416 3.69099
LeftFoot  -2.40665 -0.00675114 -0.159886
LeftToes  -39.8214 1.46665e-006 1.03344e-007
475
root  -25.2957 34.1617 -24.8402 -171.149 -40.4694 -174.025
RightUpLeg  -23.999 -21.2559 13.2837
RightLeg  14.5696 -11.4706 -2.18693
RightFoot  0.474492 0.00501668 0.00218353
RightToes  -9.56383 -0.0312234 -0.0880915
Spine  -0.378833 -0.409524 3.69725
Spine1  -0.805216 -0.901815 7.88757
HEad  -36.2754 -10.2069 -3.75414
LeftShoulder1  -1.94126e-019 -3.10601e-018 -2.51263e-017
LeftArm  -28.2869 35.3612 -92.0109
LeftForeArm  23.7706 -14.8986 -2.57531
LeftHand  -0.239725 0.186775 5.37667
RightShoulder  -4.96962e-017 0 -2.36833e-017
RightArm  -60.4166 -20.0481 74.2307
RightForeArm  38.2304 9.9538 1.6003
RightHand  0.0620218 -6.31965 -10.5808
LeftUpLeg  -20.5161 10.8902 3.0041
LeftLeg  49.643 7.33271 7.50994
LeftFoot  2.48522 -0.00863906 0.559826
LeftToes  -34.7836 1.46665e-006 1.03344e-007
476
root  -25.6508 34.3325 -25.6098 -171.215 -40.2019 -174.654
RightUpLeg  -20.3951 -23.1903 12.7953
RightLeg  10.8489 -9.57606 -1.19502
RightFoot  1.06749 0.010219 -0.0585401
RightToes  -10.4485 -0.0348457 -0.0959519
Spine  -0.0631087 0.100415 3.05805
Spine1  -0.127109 0.191809 6.61943
HEad  -35.6497 -10.7157 -2.6612
LeftShoulder1  -1.94126e-019 -3.10601e-018 -2.51263e-017
LeftArm  -25.6188 35.6191 -92.7616
LeftForeArm  21.3688 -20.5964 -3.36722
LeftHand  -0.0696669 -0.797003 1.39773
RightShoulder  -4.96962e-017 0 -2.36833e-017
RightArm  -47.7164 -19.8406 76.1769
RightForeArm  41.763 13.546 1.55166
RightHand  -0.129685 -4.04472 -9.9165
LeftUpLeg  -23.6524 12.3136 2.11888
LeftLeg  54.4591 9.37215 11.2726
LeftFoot  2.0404 -0.00899229 0.66653
LeftToes  -30.6111 1.46665e-006 1.03344e-007
477
root  -26.019 34.4671 -26.3687 -171.084 -39.6556 -175.346
RightUpLeg  -16.7669 -25.2922 12.1741
RightLeg  6.86062 -7.00611 -0.385617
RightFoot  1.90022 0.0134059 -0.0915902
RightToes  -11.736 -0.0403336 -0.107291
Spine  0.102956 0.636415 2.40957
Spine1  0.23934 1.33419 5.3683
HEad  -34.8304 -11.1786 -2.02384
LeftShoulder1  -1.94126e-019 -3.10601e-018 -2.51263e-017
LeftArm  -27.5276 35.9122 -92.6401
LeftForeArm  19.2102 -23.965 -4.05916
LeftHand  -0.0279353 -0.0342294 0.607368
RightShoulder  -4.96962e-017 0 -2.36833e-017
RightArm  -34.8401 -19.4912 77.1787
RightForeArm  48.3306 17.0806 1.33489
RightHand  -0.147946 -4.06375 -11.7599
LeftUpLeg  -26.4299 12.1837 1.35776
LeftLeg  56.6891 9.74014 12.6458
LeftFoot  0.617014 -0.000968336 0.341447
LeftToes  -27.4725 1.46665e-006 1.03344e-007
478
root  -26.3733 34.5348 -27.1065 -170.954 -38.8058 -175.754
RightUpLeg  -13.8198 -26.8574 11.7106
RightLeg  3.92986 -4.8009 -0.0191498
RightFoot  2.21873 0.0101099 -0.0302989
RightToes  -12.8437 -0.0452577 -0.116945
Spine  0.154554 1.22632 1.8292
Spine1  0.368401 2.54376 4.28248
HEad  -34.1113 -11.8877 -1.65881
LeftShoulder1  -1.94126e-019 -3.10601e-018 -2.51263e-017
LeftArm  -31.6937 36.407 -91.4628
LeftForeArm  15.5189 -24.9684 -4.46924
LeftHand  -0.119555 -0.883157 2.31602
RightShoulder  -4.96962e-017 0 -2.36833e-017
RightArm  -24.2993 -18.9402 77.1042
RightForeArm  53.4927 20.1228 1.67374
RightHand  -0.259238 -2.96051 -11.9346
LeftUpLeg  -28.8984 10.8984 1.12062
LeftLeg  56.536 9.55925 12.3536
LeftFoot  1.05667 -0.00290322 0.476424
LeftToes  -27.3099 1.46665e-006 1.03344e-007
479
root  -26.7207 34.5477 -27.7897 -170.799 -37.4551 -176.046
RightUpLeg  -12.0273 -25.7101 10.9311
RightLeg  3.4084 -4.6829 0.0238228
RightFoot  1.53722 0.00634707 0.0421833
RightToes  -12.7556 -0.047676 -0.11749
Spine  0.202814 1.84211 1.33827
Spine1  0.473252 3.79127 3.33044
HEad  -33.8617 -12.1958 -1.68787
LeftShoulder1  -1.94126e-019 -3.10601e-018 -2.51263e-017
LeftArm  -33.3024 36.7132 -89.7415
LeftForeArm  14.5559 -25.9165 -4.72835
LeftHand  -0.205062 0.195666 4.60358
RightShoulder  -4.96962e-017 0 -2.36833e-017
RightArm  -15.2563 -18.116 76.3715
RightForeArm  53.6966 24.7832 2.56338
RightHand  -0.332881 -2.02233 -11.2642
LeftUpLeg  -30.9493 9.38549 1.22241
LeftLeg  54.1898 9.50858 11.3248
LeftFoot  2.37712 -0.0135501 0.814669
LeftToes  -28.0161 1.46665e-006 1.03344e-007
480
root  -27.1061 34.5525 -28.4678 -170.458 -35.874 -176.509
RightUpLeg  -11.0164 -24.6019 10.0468
RightLeg  4.16799 -4.53759 -0.0368852
RightFoot  0.385576 0.000914832 0.145863
RightToes  -12.8696 -0.048964 -0.117169
Spine  0.21582 2.303 0.849818
Spine1  0.489249 4.74589 2.35529
HEad  -33.7908 -11.8929 -2.09297
LeftShoulder1  -1.94126e-019 -3.10601e-018 -2.51263e-017
LeftArm  -34.809 36.7361 -87.6629
LeftForeArm  13.4821 -26.084 -4.823
LeftHand  -0.23235 0.936616 6.00149
RightShoulder  -4.96962e-017 0 -2.36833e-017
RightArm  -7.99358 -16.054 75.5922
RightForeArm  51.546 27.2554 3.1595
RightHand  -0.34285 -1.3883 -9.83396
LeftUpLeg  -32.3652 8.33295 1.29048
LeftLeg  49.6522 10.1072 10.2806
LeftFoot  3.71823 -0.0320555 1.14911
LeftToes  -27.2544 1.46665e-006 1.03344e-007
481
root  -27.5225 34.5601 -29.1564 -169.847 -34.2196 -177.167
RightUpLeg  -10.0751 -23.1318 8.9454
RightLeg  4.7752 -4.6016 -0.086061
RightFoot  -0.642457 -0.00235049 0.236755
RightToes  -13.586 -0.0500812 -0.12336
Spine  0.0740334 2.60385 0.331015
Spine1  0.184474 5.37247 1.32319
HEad  -33.6454 -11.3217 -2.6711
LeftShoulder1  -1.94126e-019 -3.10601e-018 -2.51263e-017
LeftArm  -35.5305 36.6019 -85.1166
LeftForeArm  12.7313 -25.0704 -4.63875
LeftHand  -0.237713 1.30263 6.65014
RightShoulder  -4.96962e-017 0 -2.36833e-017
RightArm  -2.73183 -13.574 75.3297
RightForeArm  50.7112 28.3273 3.42739
RightHand  -0.339508 -0.523035 -8.08867
LeftUpLeg  -33.2151 8.1893 1.08672
LeftLeg  43.0129 11.2697 9.09068
LeftFoot  4.09801 -0.0390598 1.25329
LeftToes  -27.9065 1.46665e-006 1.03344e-007
482
root  -27.9696 34.543 -29.9123 -169.449 -33.1171 -177.398
RightUpLeg  -8.80556 -20.7486 8.12569
RightLeg  4.97998 -5.95672 -0.13269
RightFoot  -1.48624 -0.00338506 0.353271
RightToes  -14.2945 -0.0519876 -0.129441
Spine  -0.154555 2.67508 -0.017475
Spine1  -0.286788 5.52246 0.63526
HEad  -33.7887 -10.9649 -3.10824
LeftShoulder1  -1.94126e-019 -3.10601e-018 -2.51263e-017
LeftArm  -34.4139 36.4412 -82.3098
LeftForeArm  13.5455 -23.4013 -4.23528
LeftHand  -0.246329 1.40247 7.0594
RightShoulder  -4.96962e-017 0 -2.36833e-017
RightArm  0.251816 -11.2818 75.5705
RightForeArm  52.1175 28.6734 3.44631
RightHand  -0.320341 0.0700166 -6.85688
LeftUpLeg  -33.5222 8.65824 1.07361
LeftLeg  34.6474 11.7578 6.96588
LeftFoot  4.14709 -0.0376342 1.20098
LeftToes  -28.382 1.46665e-006 1.03344e-007
483
root  -28.5227 34.488 -30.6549 -168.63 -32.2426 -178.216
RightUpLeg  -7.83345 -20.8806 6.87623
RightLeg  5.40287 -5.27996 -0.156521
RightFoot  -2.68088 -0.00336366 0.447973
RightToes  -15.0356 -0.0555468 -0.135758
Spine  -0.453839 2.6173 -0.512527
Spine1  -0.908966 5.40243 -0.347683
HEad  -34.3409 -10.8602 -3.25355
LeftShoulder1  -1.94126e-019 -3.10601e-018 -2.51263e-017
LeftArm  -31.9504 35.9149 -79.272
LeftForeArm  15.7282 -20.8063 -3.59252
LeftHand  -0.255855 1.52646 7.562
RightShoulder  -4.96962e-017 0 -2.36833e-017
RightArm  1.07883 -9.45911 76.353
RightForeArm  53.9277 28.5327 3.34555
RightHand  -0.324714 0.19102 -6.81102
LeftUpLeg  -33.1569 8.63301 0.428758
LeftLeg  24.6255 11.7255 4.44401
LeftFoot  5.74373 -0.0654489 1.46616
LeftToes  -30.4131 1.46665e-006 1.03344e-007
484
root  -29.0976 34.4104 -31.4431 -167.962 -32.1503 -178.791
RightUpLeg  -6.94405 -19.1708 5.78976
RightLeg  6.3658 -6.94451 -0.322279
RightFoot  -4.12025 0.00444132 0.71744
RightToes  -15.1348 -0.0575611 -0.136601
Spine  -0.784734 2.34493 -0.854381
Spine1  -1.58003 4.88255 -1.03785
HEad  -35.2358 -11.0481 -3.24102
LeftShoulder1  -1.94126e-019 -3.10601e-018 -2.51263e-017
LeftArm  -28.9656 35.1162 -76.4938
LeftForeArm  18.0564 -17.3387 -2.85805
LeftHand  -0.258802 1.62675 7.84441
RightShoulder  -4.96962e-017 0 -2.36833e-017
RightArm  -0.205781 -8.41622 77.2978
RightForeArm  54.4821 28.1281 3.24109
RightHand  -0.33194 -0.313578 -7.60194
LeftUpLeg  -32.7147 6.05927 0.909209
LeftLeg  15.7504 10.714 2.274
LeftFoot  10.3035 -0.182169 2.18189
LeftToes  -23.8112 1.46665e-006 1.03344e-007
485
root  -29.7875 34.2426 -32.2365 -167.343 -32.3374 -179.483
RightUpLeg  -6.20665 -18.9546 4.52595
RightLeg  8.01638 -7.61982 -0.573102
RightFoot  -5.99542 0.022992 1.03243
RightToes  -15.8314 -0.0590909 -0.14249
Spine  -1.06997 2.05593 -1.17361
Spine1  -2.13925 4.37333 -1.68493
HEad  -36.7729 -11.4928 -3.13271
LeftShoulder1  -1.94126e-019 -3.10601e-018 -2.51263e-017
LeftArm  -26.8286 34.224 -74.3959
LeftForeArm  20.5455 -15.0633 -2.46527
LeftHand  -0.258834 1.59352 7.78044
RightShoulder  -4.96962e-017 0 -2.36833e-017
RightArm  -3.28585 -8.32093 78.0613
RightForeArm  53.8245 28.5698 3.36572
RightHand  -0.323829 -0.959777 -8.42517
LeftUpLeg  -32.4352 -0.0384216 2.83313
LeftLeg  10.1415 11.0569 1.24253
LeftFoot  13.027 -0.296029 2.7539
LeftToes  -25.8238 1.46665e-006 1.03344e-007
